<svg xmlns="http://www.w3.org/2000/svg" viewBox="0 0 100 100" width="100" height="100">
  <defs>
    <linearGradient id="g" x1="0%" y1="0%" x2="100%" y2="100%">
      <stop offset="0%" stop-color="#38bdf8"/>
      <stop offset="100%" stop-color="#6366f1"/>
    </linearGradient>
  </defs>
  <rect width="100" height="100" rx="24" fill="url(#g)"/>
  <path d="M 65 30 L 38 30 C 30 30 25 35 25 45 L 25 55 C 25 65 30 70 38 70 L 65 70 C 72 70 75 66 75 60 L 75 52 L 48 52 L 48 60 L 63 60 L 63 62 C 63 62 60 62 55 62 L 40 62 C 35 62 34 58 34 55 L 34 45 C 34 42 35 38 40 38 L 65 38 Z" fill="#090d16"/>
</svg>
